<svg width="77" height="21" viewBox="0 0 77 21" fill="none" xmlns="http://www.w3.org/2000/svg">
<path d="M1.93844 18.5619V2.72189H3.42344L9.64944 16.0429L15.8424 2.72189H17.3494V18.5509H15.8094V6.32989L10.1664 18.5619H9.12144L3.48944 6.32989V18.5619H1.93844ZM23.8355 18.8919C22.9408 18.8919 22.1892 18.7306 21.5805 18.4079C20.9792 18.0852 20.5282 17.6562 20.2275 17.1209C19.9268 16.5856 19.7765 16.0026 19.7765 15.3719C19.7765 14.7266 19.9048 14.1766 20.1615 13.7219C20.4255 13.2599 20.7812 12.8822 21.2285 12.5889C21.6832 12.2956 22.2075 12.0719 22.8015 11.9179C23.4028 11.7712 24.0665 11.6429 24.7925 11.5329C25.5258 11.4156 26.2408 11.3166 26.9375 11.2359C27.6415 11.1479 28.2575 11.0636 28.7855 10.9829L28.2135 11.3349C28.2355 10.1616 28.0082 9.29256 27.5315 8.72789C27.0548 8.16322 26.2262 7.88089 25.0455 7.88089C24.2315 7.88089 23.5422 8.06422 22.9775 8.43089C22.4202 8.79756 22.0278 9.37689 21.8005 10.1689L20.2275 9.70689C20.4988 8.64356 21.0452 7.81856 21.8665 7.23189C22.6878 6.64522 23.7548 6.35189 25.0675 6.35189C26.1528 6.35189 27.0732 6.55722 27.8285 6.96789C28.5912 7.37122 29.1302 7.95789 29.4455 8.72789C29.5922 9.07256 29.6875 9.45756 29.7315 9.88289C29.7755 10.3082 29.7975 10.7409 29.7975 11.1809V18.5619H28.3565V15.5809L28.7745 15.7569C28.3712 16.7762 27.7442 17.5536 26.8935 18.0889C26.0428 18.6242 25.0235 18.8919 23.8355 18.8919ZM24.0225 17.4949C24.7778 17.4949 25.4378 17.3592 26.0025 17.0879C26.5672 16.8166 27.0218 16.4462 27.3665 15.9769C27.7112 15.5002 27.9348 14.9649 28.0375 14.3709C28.1255 13.9896 28.1732 13.5716 28.1805 13.1169C28.1878 12.6549 28.1915 12.3102 28.1915 12.0829L28.8075 12.4019C28.2575 12.4752 27.6598 12.5486 27.0145 12.6219C26.3765 12.6952 25.7458 12.7796 25.1225 12.8749C24.5065 12.9702 23.9492 13.0839 23.4505 13.2159C23.1132 13.3112 22.7868 13.4469 22.4715 13.6229C22.1562 13.7916 21.8958 14.0189 21.6905 14.3049C21.4925 14.5909 21.3935 14.9466 21.3935 15.3719C21.3935 15.7166 21.4778 16.0502 21.6465 16.3729C21.8225 16.6956 22.1012 16.9632 22.4825 17.1759C22.8712 17.3886 23.3845 17.4949 24.0225 17.4949ZM32.6611 18.5619V6.68189H34.1131V9.54189L33.8271 9.16789C33.9591 8.81589 34.1314 8.49322 34.3441 8.19989C34.5568 7.89922 34.7878 7.65356 35.0371 7.46289C35.3451 7.19156 35.7044 6.98622 36.1151 6.84689C36.5258 6.70022 36.9401 6.61589 37.3581 6.59389C37.7761 6.56456 38.1574 6.59389 38.5021 6.68189V8.19989C38.0694 8.08989 37.5964 8.06422 37.0831 8.12289C36.5698 8.18156 36.0968 8.38689 35.6641 8.73889C35.2681 9.04689 34.9711 9.41722 34.7731 9.84989C34.5751 10.2752 34.4431 10.7299 34.3771 11.2139C34.3111 11.6906 34.2781 12.1636 34.2781 12.6329V18.5619H32.6611ZM47.0568 18.5619C46.3895 18.7012 45.7295 18.7562 45.0768 18.7269C44.4315 18.6976 43.8522 18.5582 43.3388 18.3089C42.8328 18.0596 42.4478 17.6709 42.1838 17.1429C41.9712 16.7029 41.8538 16.2592 41.8318 15.8119C41.8172 15.3572 41.8098 14.8402 41.8098 14.2609V3.38189H43.4158V14.1949C43.4158 14.6936 43.4195 15.1116 43.4268 15.4489C43.4415 15.7789 43.5185 16.0722 43.6578 16.3289C43.9218 16.8202 44.3398 17.1136 44.9118 17.2089C45.4912 17.3042 46.2062 17.2822 47.0568 17.1429V18.5619ZM39.2688 8.06789V6.68189H47.0568V8.06789H39.2688ZM49.6174 4.42689V2.61189H51.2344V4.42689H49.6174ZM49.6174 18.5619V6.68189H51.2344V18.5619H49.6174ZM63.1122 18.5619V12.5009C63.1122 11.8409 63.0499 11.2359 62.9252 10.6859C62.8005 10.1286 62.5989 9.64456 62.3202 9.23389C62.0489 8.81589 61.6932 8.49322 61.2532 8.26589C60.8205 8.03856 60.2925 7.92489 59.6692 7.92489C59.0972 7.92489 58.5912 8.02389 58.1512 8.22189C57.7185 8.41989 57.3519 8.70589 57.0512 9.07989C56.7579 9.44656 56.5342 9.89389 56.3802 10.4219C56.2262 10.9499 56.1492 11.5512 56.1492 12.2259L55.0052 11.9729C55.0052 10.7556 55.2179 9.73256 55.6432 8.90389C56.0685 8.07522 56.6552 7.44822 57.4032 7.02289C58.1512 6.59756 59.0092 6.38489 59.9772 6.38489C60.6885 6.38489 61.3082 6.49489 61.8362 6.71489C62.3715 6.93489 62.8225 7.23189 63.1892 7.60589C63.5632 7.97989 63.8639 8.40889 64.0912 8.89289C64.3185 9.36956 64.4835 9.87922 64.5862 10.4219C64.6889 10.9572 64.7402 11.4926 64.7402 12.0279V18.5619H63.1122ZM54.5212 18.5619V6.68189H55.9842V9.60789H56.1492V18.5619H54.5212Z" fill="black"/>
<path d="M71.0172 10.8799C70.4052 10.8799 69.8292 10.7659 69.2892 10.5379C68.7492 10.3059 68.2752 9.98589 67.8672 9.57789C67.4592 9.16989 67.1392 8.69589 66.9072 8.15589C66.6752 7.61589 66.5592 7.03789 66.5592 6.42189C66.5592 5.80589 66.6752 5.22789 66.9072 4.68789C67.1392 4.14789 67.4592 3.67389 67.8672 3.26589C68.2752 2.85789 68.7492 2.53989 69.2892 2.31189C69.8292 2.07989 70.4052 1.96389 71.0172 1.96389C71.6372 1.96389 72.2152 2.07989 72.7512 2.31189C73.2912 2.53989 73.7652 2.85789 74.1732 3.26589C74.5812 3.67389 74.9012 4.14789 75.1332 4.68789C75.3652 5.22789 75.4812 5.80589 75.4812 6.42189C75.4812 7.03789 75.3652 7.61589 75.1332 8.15589C74.9012 8.69589 74.5812 9.16989 74.1732 9.57789C73.7652 9.98589 73.2912 10.3059 72.7512 10.5379C72.2152 10.7659 71.6372 10.8799 71.0172 10.8799ZM71.0712 8.94789C70.7072 8.94789 70.3812 8.88589 70.0932 8.76189C69.8052 8.63789 69.5532 8.43989 69.3372 8.16789C69.1292 7.90389 68.9852 7.61989 68.9052 7.31589C68.8292 7.01189 68.7912 6.70789 68.7912 6.40389C68.7952 6.09189 68.8372 5.78589 68.9172 5.48589C69.0012 5.18589 69.1412 4.91189 69.3372 4.66389C69.5532 4.39589 69.8072 4.19789 70.0992 4.06989C70.3912 3.94189 70.7272 3.87789 71.1072 3.87789C71.3232 3.87789 71.5272 3.90189 71.7192 3.94989C71.9112 3.99389 72.1012 4.07189 72.2892 4.18389C72.4812 4.30389 72.6512 4.45389 72.7992 4.63389C72.9472 4.81389 73.0532 5.02189 73.1172 5.25789L72.3792 5.47989C72.3312 5.35589 72.2632 5.23589 72.1752 5.11989C72.0872 5.00389 71.9852 4.90389 71.8692 4.81989C71.7572 4.73989 71.6312 4.68189 71.4912 4.64589C71.3552 4.60589 71.2172 4.58589 71.0772 4.58589C70.8452 4.58589 70.6332 4.63389 70.4412 4.72989C70.2492 4.82189 70.0852 4.95189 69.9492 5.11989C69.8132 5.29589 69.7192 5.49789 69.6672 5.72589C69.6152 5.94989 69.5892 6.17389 69.5892 6.39789C69.5892 6.64189 69.6172 6.87789 69.6732 7.10589C69.7332 7.33389 69.8252 7.53189 69.9492 7.69989C70.0772 7.87589 70.2372 8.00989 70.4292 8.10189C70.6252 8.19389 70.8412 8.23989 71.0772 8.23989C71.3892 8.23989 71.6572 8.16389 71.8812 8.01189C71.9972 7.92789 72.0932 7.83389 72.1692 7.72989C72.2452 7.62589 72.3092 7.50989 72.3612 7.38189L73.1172 7.58589C73.0292 7.81389 72.9172 8.01189 72.7812 8.17989C72.6452 8.34789 72.5032 8.48389 72.3552 8.58789C72.1752 8.70789 71.9812 8.79789 71.7732 8.85789C71.5692 8.91789 71.3352 8.94789 71.0712 8.94789ZM71.0172 10.0219C71.5172 10.0219 71.9832 9.92989 72.4152 9.74589C72.8472 9.55789 73.2272 9.29989 73.5552 8.97189C73.8872 8.63989 74.1452 8.25589 74.3292 7.81989C74.5172 7.37989 74.6112 6.91189 74.6112 6.41589C74.6112 5.91589 74.5172 5.44989 74.3292 5.01789C74.1452 4.58589 73.8872 4.20589 73.5552 3.87789C73.2272 3.54589 72.8472 3.28789 72.4152 3.10389C71.9832 2.91589 71.5172 2.82189 71.0172 2.82189C70.5212 2.82189 70.0532 2.91589 69.6132 3.10389C69.1772 3.28789 68.7932 3.54589 68.4612 3.87789C68.1332 4.20589 67.8752 4.58589 67.6872 5.01789C67.5032 5.44989 67.4112 5.91589 67.4112 6.41589C67.4112 6.91189 67.5032 7.37989 67.6872 7.81989C67.8752 8.25589 68.1332 8.63989 68.4612 8.97189C68.7932 9.29989 69.1772 9.55789 69.6132 9.74589C70.0532 9.92989 70.5212 10.0219 71.0172 10.0219Z" fill="black"/>
</svg>
