<svg width="161" height="67" viewBox="0 0 161 67" fill="none" xmlns="http://www.w3.org/2000/svg">
<g opacity="0.5">
<path d="M72.2477 23.7345C72.6704 24.1784 73.3152 24.4004 74.1817 24.4004C75.0482 24.4004 75.6824 24.1784 76.084 23.7345C76.4859 23.2695 76.6865 22.6988 76.6865 22.0224C76.6865 21.3037 76.4859 20.7224 76.084 20.2786C75.6824 19.8347 75.0482 19.6127 74.1817 19.6127C73.3152 19.6127 72.6704 19.8347 72.2477 20.2786C71.8458 20.7224 71.6453 21.3037 71.6453 22.0224C71.6453 22.6988 71.8458 23.2695 72.2477 23.7345Z" fill="black"/>
<path d="M52.1199 26.4613L57.5101 43.6779H64.5804L69.2412 26.4613H64.9929L61.4857 40.0634H60.737L56.6541 26.4613H52.1199Z" fill="black"/>
<path d="M86.7117 44.2169C84.3444 44.2169 82.4841 43.7202 81.1314 42.7267C79.7999 41.7122 79.1023 40.3168 79.0388 38.5415H83.002C83.0654 39.1334 83.3933 39.6724 83.9848 40.1586C84.5767 40.6447 85.5071 40.8876 86.7751 40.8876C87.832 40.8876 88.6668 40.6976 89.2798 40.3168C89.914 39.9365 90.231 39.4186 90.231 38.7632C90.231 38.1926 89.9881 37.7381 89.5019 37.4C89.037 37.0617 88.2335 36.8398 87.092 36.7341L85.5702 36.5756C83.6467 36.3642 82.1672 35.8146 81.1314 34.9268C80.0957 34.0391 79.5778 32.8554 79.5778 31.3758C79.5778 30.1921 79.8736 29.1986 80.4655 28.3954C81.0574 27.5922 81.8714 26.9897 82.9072 26.5881C83.9637 26.1654 85.1686 25.954 86.5217 25.954C88.6351 25.954 90.3473 26.419 91.658 27.349C92.9684 28.2791 93.6555 29.6425 93.7189 31.4392H89.7554C89.7131 30.8473 89.4173 30.34 88.8677 29.9173C88.3181 29.4945 87.5257 29.2831 86.4899 29.2831C85.5596 29.2831 84.8411 29.4628 84.3338 29.8222C83.8265 30.1815 83.5727 30.6465 83.5727 31.2172C83.5727 31.7668 83.7737 32.1896 84.1752 32.4855C84.5979 32.7814 85.2744 32.9822 86.2044 33.0879L87.7262 33.2464C89.7554 33.4578 91.3407 34.018 92.4822 34.9268C93.6449 35.8358 94.2262 37.0617 94.2262 38.605C94.2262 39.7461 93.9089 40.7395 93.2751 41.5852C92.662 42.4095 91.7951 43.0542 90.6752 43.5192C89.5548 43.9842 88.2335 44.2169 86.7117 44.2169Z" fill="black"/>
<path d="M96.7886 23.7345C97.2117 24.1784 97.8561 24.4004 98.723 24.4004C99.5895 24.4004 100.224 24.1784 100.625 23.7345C101.027 23.2695 101.228 22.6988 101.228 22.0224C101.228 21.3037 101.027 20.7224 100.625 20.2786C100.224 19.8347 99.5895 19.6127 98.723 19.6127C97.8561 19.6127 97.2117 19.8347 96.7886 20.2786C96.3871 20.7224 96.1865 21.3037 96.1865 22.0224C96.1865 22.6988 96.3871 23.2695 96.7886 23.7345Z" fill="black"/>
<path fill-rule="evenodd" clip-rule="evenodd" d="M113.282 44.2803C111.76 44.2803 110.418 44.0371 109.256 43.5509C108.093 43.0648 107.11 42.4094 106.307 41.5852C105.504 40.7395 104.891 39.7884 104.468 38.7315C104.066 37.6747 103.865 36.5756 103.865 35.4342V34.7683C103.865 33.5846 104.077 32.4643 104.5 31.4074C104.944 30.3294 105.567 29.3782 106.37 28.5539C107.195 27.7084 108.188 27.0531 109.351 26.5881C110.513 26.1019 111.824 25.8589 113.282 25.8589C114.741 25.8589 116.051 26.1019 117.214 26.5881C118.376 27.0531 119.359 27.7084 120.163 28.5539C120.987 29.3782 121.61 30.3294 122.033 31.4074C122.456 32.4643 122.667 33.5846 122.667 34.7683V35.4342C122.667 36.5756 122.456 37.6747 122.033 38.7315C121.632 39.7884 121.029 40.7395 120.226 41.5852C119.423 42.4094 118.44 43.0648 117.277 43.5509C116.115 44.0371 114.783 44.2803 113.282 44.2803ZM113.282 40.5072C114.36 40.5072 115.269 40.2745 116.009 39.8095C116.749 39.3234 117.309 38.6786 117.69 37.8755C118.07 37.0512 118.26 36.1211 118.26 35.0854C118.26 34.0285 118.059 33.0985 117.658 32.2952C117.277 31.4709 116.706 30.8262 115.946 30.3611C115.206 29.875 114.318 29.6319 113.282 29.6319C112.247 29.6319 111.348 29.875 110.587 30.3611C109.848 30.8262 109.277 31.4709 108.875 32.2952C108.473 33.0985 108.273 34.0285 108.273 35.0854C108.273 36.1211 108.463 37.0512 108.844 37.8755C109.245 38.6786 109.816 39.3234 110.555 39.8095C111.295 40.2745 112.204 40.5072 113.282 40.5072Z" fill="black"/>
<path d="M128.809 29.4734C128.658 29.8521 128.531 30.2623 128.429 30.7039V26.4613H124.941V43.6779H129.348V33.5635C129.348 32.4432 129.676 31.5554 130.331 30.9001C131.008 30.2237 131.885 29.8856 132.963 29.8856C134.02 29.8856 134.844 30.2132 135.436 30.8685C136.049 31.5237 136.355 32.3798 136.355 33.4366V43.6779H140.763V33.8171C140.763 31.1961 140.234 29.2303 139.177 27.9197C138.12 26.5881 136.567 25.9223 134.516 25.9223H134.326C132.952 25.9223 131.8 26.2182 130.87 26.8101C129.961 27.4019 129.274 28.2897 128.809 29.4734Z" fill="black"/>
<path d="M72.5646 29.7587V43.6779H76.9719V26.4613H70.155V29.7587H72.5646Z" fill="black"/>
<path d="M97.106 29.7587V43.6779H101.513V26.4613H94.696V29.7587H97.106Z" fill="black"/>
<path fill-rule="evenodd" clip-rule="evenodd" d="M33.0593 47.2161C40.6816 47.2161 46.8608 41.0368 46.8608 33.4144C46.8608 25.792 40.6816 19.6127 33.0593 19.6127C25.4368 19.6127 19.2576 25.792 19.2576 33.4144C19.2576 41.0368 25.4368 47.2161 33.0593 47.2161ZM43.2165 31.9822C41.9296 33.4871 40.1168 34.4243 38.1085 34.4243C34.2042 34.4243 31.0392 30.8826 31.0392 26.5136C31.0392 25.4144 31.2395 24.3676 31.6016 23.4164C26.7093 24.1594 22.9603 28.3836 22.9603 33.4834C22.9603 34.9714 23.2795 36.3848 23.8531 37.6589C24.4349 37.1176 25.2526 36.7808 26.1583 36.7808C27.9245 36.7808 29.3563 38.0618 29.3563 39.6422C29.3563 40.7032 28.7107 41.6294 27.7518 42.1235C29.3153 43.1011 31.1633 43.6665 33.1433 43.6665C38.7672 43.6665 43.3264 39.1073 43.3264 33.4834C43.3264 32.9734 43.2886 32.4721 43.2165 31.9822Z" fill="black"/>
<mask id="mask0_29_176" style="mask-type:alpha" maskUnits="userSpaceOnUse" x="19" y="19" width="28" height="29">
<path fill-rule="evenodd" clip-rule="evenodd" d="M33.0593 47.2161C40.6816 47.2161 46.8608 41.0368 46.8608 33.4144C46.8608 25.792 40.6816 19.6127 33.0593 19.6127C25.4368 19.6127 19.2576 25.792 19.2576 33.4144C19.2576 41.0368 25.4368 47.2161 33.0593 47.2161ZM43.2165 31.9822C41.9296 33.4871 40.1168 34.4243 38.1085 34.4243C34.2042 34.4243 31.0392 30.8826 31.0392 26.5136C31.0392 25.4144 31.2395 24.3676 31.6016 23.4164C26.7093 24.1594 22.9603 28.3836 22.9603 33.4834C22.9603 34.9714 23.2795 36.3848 23.8531 37.6589C24.4349 37.1176 25.2526 36.7808 26.1583 36.7808C27.9245 36.7808 29.3563 38.0618 29.3563 39.6422C29.3563 40.7032 28.7107 41.6294 27.7518 42.1235C29.3153 43.1011 31.1633 43.6665 33.1433 43.6665C38.7672 43.6665 43.3264 39.1073 43.3264 33.4834C43.3264 32.9734 43.2886 32.4721 43.2165 31.9822Z" fill="black"/>
</mask>
<g mask="url(#mask0_29_176)">
<path d="M43.2164 31.9822L44.2151 31.8346L43.891 29.6394L42.4488 31.3259L43.2164 31.9822ZM31.6014 23.4164L32.5452 23.7756L33.1608 22.1581L31.4498 22.418L31.6014 23.4164ZM23.8529 37.659L22.9321 38.0735L23.51 39.3574L24.5408 38.3983L23.8529 37.659ZM27.7516 42.1235L27.2891 41.2256L25.7112 42.0385L27.2162 42.9798L27.7516 42.1235ZM45.851 33.4144C45.851 40.4792 40.1239 46.2064 33.0591 46.2064V48.2261C41.2393 48.2261 47.8707 41.5947 47.8707 33.4144H45.851ZM33.0591 20.6226C40.1239 20.6226 45.851 26.3497 45.851 33.4144H47.8707C47.8707 25.2342 41.2393 18.6028 33.0591 18.6028V20.6226ZM20.2673 33.4144C20.2673 26.3497 25.9944 20.6226 33.0591 20.6226V18.6028C24.8789 18.6028 18.2476 25.2342 18.2476 33.4144H20.2673ZM33.0591 46.2064C25.9944 46.2064 20.2673 40.4792 20.2673 33.4144H18.2476C18.2476 41.5947 24.8789 48.2261 33.0591 48.2261V46.2064ZM38.1083 35.4342C40.4446 35.4342 42.5274 34.3418 43.9839 32.6385L42.4488 31.3259C41.3315 32.6325 39.7888 33.4144 38.1083 33.4144V35.4342ZM30.0292 26.5136C30.0292 31.3305 33.5425 35.4342 38.1083 35.4342V33.4144C34.8656 33.4144 32.0489 30.4346 32.0489 26.5136H30.0292ZM30.6576 23.0572C30.252 24.1229 30.0292 25.2914 30.0292 26.5136H32.0489C32.0489 25.5374 32.2268 24.6123 32.5452 23.7756L30.6576 23.0572ZM23.9701 33.4834C23.9701 28.8903 27.3468 25.0841 31.753 24.4148L31.4498 22.418C26.0714 23.2348 21.9503 27.8769 21.9503 33.4834H23.9701ZM24.7738 37.2444C24.2577 36.098 23.9701 34.8256 23.9701 33.4834H21.9503C21.9503 35.1171 22.301 36.6716 22.9321 38.0735L24.7738 37.2444ZM26.1582 35.7709C25.0025 35.7709 23.9376 36.2008 23.165 36.9196L24.5408 38.3983C24.9319 38.0345 25.5025 37.7907 26.1582 37.7907V35.7709ZM30.366 39.6422C30.366 37.4014 28.3735 35.7709 26.1582 35.7709V37.7907C27.4752 37.7907 28.3463 38.7224 28.3463 39.6422H30.366ZM28.2141 43.0214C29.4572 42.3807 30.366 41.1365 30.366 39.6422H28.3463C28.3463 40.27 27.9639 40.8781 27.2891 41.2256L28.2141 43.0214ZM33.1432 42.6565C31.358 42.6565 29.6947 42.1477 28.2871 41.2672L27.2162 42.9798C28.9356 44.0548 30.9683 44.6762 33.1432 44.6762V42.6565ZM42.3162 33.4834C42.3162 38.5494 38.2092 42.6565 33.1432 42.6565V44.6762C39.3246 44.6762 44.3359 39.6649 44.3359 33.4834H42.3162ZM42.2173 32.1298C42.2822 32.571 42.3162 33.0229 42.3162 33.4834H44.3359C44.3359 32.9238 44.2948 32.3732 44.2151 31.8346L42.2173 32.1298Z" fill="black"/>
</g>
</g>
</svg>
