<svg width="77" height="21" viewBox="0 0 77 21" fill="none" xmlns="http://www.w3.org/2000/svg">
<path d="M2.18844 18.0908V2.25076H3.67344L9.89944 15.5718L16.0924 2.25076H17.5994V18.0798H16.0594V5.85876L10.4164 18.0908H9.37144L3.73944 5.85876V18.0908H2.18844ZM24.0855 18.4208C23.1908 18.4208 22.4392 18.2594 21.8305 17.9368C21.2292 17.6141 20.7782 17.1851 20.4775 16.6498C20.1768 16.1144 20.0265 15.5314 20.0265 14.9008C20.0265 14.2554 20.1548 13.7054 20.4115 13.2508C20.6755 12.7888 21.0312 12.4111 21.4785 12.1178C21.9332 11.8244 22.4575 11.6008 23.0515 11.4468C23.6528 11.3001 24.3165 11.1718 25.0425 11.0618C25.7758 10.9444 26.4908 10.8454 27.1875 10.7648C27.8915 10.6768 28.5075 10.5924 29.0355 10.5118L28.4635 10.8638C28.4855 9.69043 28.2582 8.82143 27.7815 8.25676C27.3048 7.69209 26.4762 7.40976 25.2955 7.40976C24.4815 7.40976 23.7922 7.59309 23.2275 7.95976C22.6702 8.32643 22.2778 8.90576 22.0505 9.69776L20.4775 9.23576C20.7488 8.17243 21.2952 7.34743 22.1165 6.76076C22.9378 6.17409 24.0048 5.88076 25.3175 5.88076C26.4028 5.88076 27.3232 6.08609 28.0785 6.49676C28.8412 6.90009 29.3802 7.48676 29.6955 8.25676C29.8422 8.60143 29.9375 8.98643 29.9815 9.41176C30.0255 9.83709 30.0475 10.2698 30.0475 10.7098V18.0908H28.6065V15.1098L29.0245 15.2858C28.6212 16.3051 27.9942 17.0824 27.1435 17.6178C26.2928 18.1531 25.2735 18.4208 24.0855 18.4208ZM24.2725 17.0238C25.0278 17.0238 25.6878 16.8881 26.2525 16.6168C26.8172 16.3454 27.2718 15.9751 27.6165 15.5058C27.9612 15.0291 28.1848 14.4938 28.2875 13.8998C28.3755 13.5184 28.4232 13.1004 28.4305 12.6458C28.4378 12.1838 28.4415 11.8391 28.4415 11.6118L29.0575 11.9308C28.5075 12.0041 27.9098 12.0774 27.2645 12.1508C26.6265 12.2241 25.9958 12.3084 25.3725 12.4038C24.7565 12.4991 24.1992 12.6128 23.7005 12.7448C23.3632 12.8401 23.0368 12.9758 22.7215 13.1518C22.4062 13.3204 22.1458 13.5478 21.9405 13.8338C21.7425 14.1198 21.6435 14.4754 21.6435 14.9008C21.6435 15.2454 21.7278 15.5791 21.8965 15.9018C22.0725 16.2244 22.3512 16.4921 22.7325 16.7048C23.1212 16.9174 23.6345 17.0238 24.2725 17.0238ZM32.9111 18.0908V6.21076H34.3631V9.07076L34.0771 8.69676C34.2091 8.34476 34.3814 8.02209 34.5941 7.72876C34.8068 7.42809 35.0378 7.18243 35.2871 6.99176C35.5951 6.72043 35.9544 6.51509 36.3651 6.37576C36.7758 6.22909 37.1901 6.14476 37.6081 6.12276C38.0261 6.09343 38.4074 6.12276 38.7521 6.21076V7.72876C38.3194 7.61876 37.8464 7.59309 37.3331 7.65176C36.8198 7.71043 36.3468 7.91576 35.9141 8.26776C35.5181 8.57576 35.2211 8.94609 35.0231 9.37876C34.8251 9.80409 34.6931 10.2588 34.6271 10.7428C34.5611 11.2194 34.5281 11.6924 34.5281 12.1618V18.0908H32.9111ZM47.3068 18.0908C46.6395 18.2301 45.9795 18.2851 45.3268 18.2558C44.6815 18.2264 44.1022 18.0871 43.5888 17.8378C43.0828 17.5884 42.6978 17.1998 42.4338 16.6718C42.2212 16.2318 42.1038 15.7881 42.0818 15.3408C42.0672 14.8861 42.0598 14.3691 42.0598 13.7898V2.91076H43.6658V13.7238C43.6658 14.2224 43.6695 14.6404 43.6768 14.9778C43.6915 15.3078 43.7685 15.6011 43.9078 15.8578C44.1718 16.3491 44.5898 16.6424 45.1618 16.7378C45.7412 16.8331 46.4562 16.8111 47.3068 16.6718V18.0908ZM39.5188 7.59676V6.21076H47.3068V7.59676H39.5188ZM49.8674 3.95576V2.14076H51.4844V3.95576H49.8674ZM49.8674 18.0908V6.21076H51.4844V18.0908H49.8674ZM63.3622 18.0908V12.0298C63.3622 11.3698 63.2999 10.7648 63.1752 10.2148C63.0505 9.65743 62.8489 9.17343 62.5702 8.76276C62.2989 8.34476 61.9432 8.02209 61.5032 7.79476C61.0705 7.56743 60.5425 7.45376 59.9192 7.45376C59.3472 7.45376 58.8412 7.55276 58.4012 7.75076C57.9685 7.94876 57.6019 8.23476 57.3012 8.60876C57.0079 8.97543 56.7842 9.42276 56.6302 9.95076C56.4762 10.4788 56.3992 11.0801 56.3992 11.7548L55.2552 11.5018C55.2552 10.2844 55.4679 9.26143 55.8932 8.43276C56.3185 7.60409 56.9052 6.97709 57.6532 6.55176C58.4012 6.12643 59.2592 5.91376 60.2272 5.91376C60.9385 5.91376 61.5582 6.02376 62.0862 6.24376C62.6215 6.46376 63.0725 6.76076 63.4392 7.13476C63.8132 7.50876 64.1139 7.93776 64.3412 8.42176C64.5685 8.89843 64.7335 9.40809 64.8362 9.95076C64.9389 10.4861 64.9902 11.0214 64.9902 11.5568V18.0908H63.3622ZM54.7712 18.0908V6.21076H56.2342V9.13676H56.3992V18.0908H54.7712Z" fill="white"/>
<path d="M71.2672 10.4088C70.6552 10.4088 70.0792 10.2948 69.5392 10.0668C68.9992 9.83476 68.5252 9.51476 68.1172 9.10676C67.7092 8.69876 67.3892 8.22476 67.1572 7.68476C66.9252 7.14476 66.8092 6.56676 66.8092 5.95076C66.8092 5.33476 66.9252 4.75676 67.1572 4.21676C67.3892 3.67676 67.7092 3.20276 68.1172 2.79476C68.5252 2.38676 68.9992 2.06876 69.5392 1.84076C70.0792 1.60876 70.6552 1.49276 71.2672 1.49276C71.8872 1.49276 72.4652 1.60876 73.0012 1.84076C73.5412 2.06876 74.0152 2.38676 74.4232 2.79476C74.8312 3.20276 75.1512 3.67676 75.3832 4.21676C75.6152 4.75676 75.7312 5.33476 75.7312 5.95076C75.7312 6.56676 75.6152 7.14476 75.3832 7.68476C75.1512 8.22476 74.8312 8.69876 74.4232 9.10676C74.0152 9.51476 73.5412 9.83476 73.0012 10.0668C72.4652 10.2948 71.8872 10.4088 71.2672 10.4088ZM71.3212 8.47676C70.9572 8.47676 70.6312 8.41476 70.3432 8.29076C70.0552 8.16676 69.8032 7.96876 69.5872 7.69676C69.3792 7.43276 69.2352 7.14876 69.1552 6.84476C69.0792 6.54076 69.0412 6.23676 69.0412 5.93276C69.0452 5.62076 69.0872 5.31476 69.1672 5.01476C69.2512 4.71476 69.3912 4.44076 69.5872 4.19276C69.8032 3.92476 70.0572 3.72676 70.3492 3.59876C70.6412 3.47076 70.9772 3.40676 71.3572 3.40676C71.5732 3.40676 71.7772 3.43076 71.9692 3.47876C72.1612 3.52276 72.3512 3.60076 72.5392 3.71276C72.7312 3.83276 72.9012 3.98276 73.0492 4.16276C73.1972 4.34276 73.3032 4.55076 73.3672 4.78676L72.6292 5.00876C72.5812 4.88476 72.5132 4.76476 72.4252 4.64876C72.3372 4.53276 72.2352 4.43276 72.1192 4.34876C72.0072 4.26876 71.8812 4.21076 71.7412 4.17476C71.6052 4.13476 71.4672 4.11476 71.3272 4.11476C71.0952 4.11476 70.8832 4.16276 70.6912 4.25876C70.4992 4.35076 70.3352 4.48076 70.1992 4.64876C70.0632 4.82476 69.9692 5.02676 69.9172 5.25476C69.8652 5.47876 69.8392 5.70276 69.8392 5.92676C69.8392 6.17076 69.8672 6.40676 69.9232 6.63476C69.9832 6.86276 70.0752 7.06076 70.1992 7.22876C70.3272 7.40476 70.4872 7.53876 70.6792 7.63076C70.8752 7.72276 71.0912 7.76876 71.3272 7.76876C71.6392 7.76876 71.9072 7.69276 72.1312 7.54076C72.2472 7.45676 72.3432 7.36276 72.4192 7.25876C72.4952 7.15476 72.5592 7.03876 72.6112 6.91076L73.3672 7.11476C73.2792 7.34276 73.1672 7.54076 73.0312 7.70876C72.8952 7.87676 72.7532 8.01276 72.6052 8.11676C72.4252 8.23676 72.2312 8.32676 72.0232 8.38676C71.8192 8.44676 71.5852 8.47676 71.3212 8.47676ZM71.2672 9.55076C71.7672 9.55076 72.2332 9.45876 72.6652 9.27476C73.0972 9.08676 73.4772 8.82876 73.8052 8.50076C74.1372 8.16876 74.3952 7.78476 74.5792 7.34876C74.7672 6.90876 74.8612 6.44076 74.8612 5.94476C74.8612 5.44476 74.7672 4.97876 74.5792 4.54676C74.3952 4.11476 74.1372 3.73476 73.8052 3.40676C73.4772 3.07476 73.0972 2.81676 72.6652 2.63276C72.2332 2.44476 71.7672 2.35076 71.2672 2.35076C70.7712 2.35076 70.3032 2.44476 69.8632 2.63276C69.4272 2.81676 69.0432 3.07476 68.7112 3.40676C68.3832 3.73476 68.1252 4.11476 67.9372 4.54676C67.7532 4.97876 67.6612 5.44476 67.6612 5.94476C67.6612 6.44076 67.7532 6.90876 67.9372 7.34876C68.1252 7.78476 68.3832 8.16876 68.7112 8.50076C69.0432 8.82876 69.4272 9.08676 69.8632 9.27476C70.3032 9.45876 70.7712 9.55076 71.2672 9.55076Z" fill="white"/>
</svg>
